<svg id="visual" viewBox="0 0 960 540" width="960" height="540" xmlns="http://www.w3.org/2000/svg" xmlns:xlink="http://www.w3.org/1999/xlink" version="1.1"><g stroke-width="1" stroke-linejoin="bevel"><path d="M444.7 244L562.3 190L419.7 181Z" fill="#575ec8" stroke="#575ec8"></path><path d="M562.3 190L521.3 123L419.7 181Z" fill="#7076f4" stroke="#7076f4"></path><path d="M521.3 123L423.7 105L419.7 181Z" fill="#1e2763" stroke="#1e2763"></path><path d="M444.7 244L544.3 283L562.3 190Z" fill="#05052e" stroke="#05052e"></path><path d="M677 212L608 83L562.3 190Z" fill="#575ec8" stroke="#575ec8"></path><path d="M562.3 190L608 83L521.3 123Z" fill="#09143f" stroke="#09143f"></path><path d="M521.3 123L424.7 0L423.7 105Z" fill="#1e2763" stroke="#1e2763"></path><path d="M544.3 283L622 279L562.3 190Z" fill="#343c8a" stroke="#343c8a"></path><path d="M444.7 244L539.3 350L544.3 283Z" fill="#4b52b3" stroke="#4b52b3"></path><path d="M544.3 283L631 337L622 279Z" fill="#3f479e" stroke="#3f479e"></path><path d="M622 279L677 212L562.3 190Z" fill="#05052e" stroke="#05052e"></path><path d="M322 293L412.7 366L444.7 244Z" fill="#05052e" stroke="#05052e"></path><path d="M444.7 244L412.7 366L539.3 350Z" fill="#3f479e" stroke="#3f479e"></path><path d="M291 147L322 293L419.7 181Z" fill="#636ade" stroke="#636ade"></path><path d="M419.7 181L322 293L444.7 244Z" fill="#4b52b3" stroke="#4b52b3"></path><path d="M570.3 0L424.7 0L521.3 123Z" fill="#05052e" stroke="#05052e"></path><path d="M300 106L291 147L419.7 181Z" fill="#141d51" stroke="#141d51"></path><path d="M539.3 350L631 337L544.3 283Z" fill="#4b52b3" stroke="#4b52b3"></path><path d="M622 279L749.7 339L677 212Z" fill="#141d51" stroke="#141d51"></path><path d="M300 106L419.7 181L423.7 105Z" fill="#3f479e" stroke="#3f479e"></path><path d="M673 0L570.3 0L608 83Z" fill="#05052e" stroke="#05052e"></path><path d="M608 83L570.3 0L521.3 123Z" fill="#293176" stroke="#293176"></path><path d="M424.7 0L300 106L423.7 105Z" fill="#3f479e" stroke="#3f479e"></path><path d="M322 293L324 340L412.7 366Z" fill="#3f479e" stroke="#3f479e"></path><path d="M217.3 369L324 340L322 293Z" fill="#575ec8" stroke="#575ec8"></path><path d="M412.7 366L493.3 421L539.3 350Z" fill="#7076f4" stroke="#7076f4"></path><path d="M539.3 350L601 451L631 337Z" fill="#3f479e" stroke="#3f479e"></path><path d="M449.7 471L493.3 421L412.7 366Z" fill="#141d51" stroke="#141d51"></path><path d="M300 106L246.3 129L291 147Z" fill="#575ec8" stroke="#575ec8"></path><path d="M291 147L196.3 202L322 293Z" fill="#05052e" stroke="#05052e"></path><path d="M236.3 0L246.3 129L300 106Z" fill="#7076f4" stroke="#7076f4"></path><path d="M774.7 197L737.7 111L677 212Z" fill="#575ec8" stroke="#575ec8"></path><path d="M677 212L737.7 111L608 83Z" fill="#3f479e" stroke="#3f479e"></path><path d="M737.7 111L673 0L608 83Z" fill="#7076f4" stroke="#7076f4"></path><path d="M424.7 0L293 0L300 106Z" fill="#343c8a" stroke="#343c8a"></path><path d="M784.7 303L774.7 197L677 212Z" fill="#09143f" stroke="#09143f"></path><path d="M493.3 421L601 451L539.3 350Z" fill="#1e2763" stroke="#1e2763"></path><path d="M631 337L749.7 339L622 279Z" fill="#636ade" stroke="#636ade"></path><path d="M342 462L449.7 471L412.7 366Z" fill="#05052e" stroke="#05052e"></path><path d="M493.3 421L535.3 540L601 451Z" fill="#09143f" stroke="#09143f"></path><path d="M135.7 95L196.3 202L246.3 129Z" fill="#05052e" stroke="#05052e"></path><path d="M246.3 129L196.3 202L291 147Z" fill="#293176" stroke="#293176"></path><path d="M760.7 444L749.7 339L631 337Z" fill="#141d51" stroke="#141d51"></path><path d="M217.3 369L342 462L324 340Z" fill="#343c8a" stroke="#343c8a"></path><path d="M324 340L342 462L412.7 366Z" fill="#7076f4" stroke="#7076f4"></path><path d="M749.7 339L784.7 303L677 212Z" fill="#1e2763" stroke="#1e2763"></path><path d="M293 0L236.3 0L300 106Z" fill="#636ade" stroke="#636ade"></path><path d="M818.3 261L817.3 193L774.7 197Z" fill="#636ade" stroke="#636ade"></path><path d="M774.7 197L817.3 193L737.7 111Z" fill="#3f479e" stroke="#3f479e"></path><path d="M737.7 111L768.7 0L673 0Z" fill="#3f479e" stroke="#3f479e"></path><path d="M175.3 297L217.3 369L322 293Z" fill="#141d51" stroke="#141d51"></path><path d="M103.7 306L175.3 297L196.3 202Z" fill="#4b52b3" stroke="#4b52b3"></path><path d="M196.3 202L175.3 297L322 293Z" fill="#636ade" stroke="#636ade"></path><path d="M784.7 303L818.3 261L774.7 197Z" fill="#4b52b3" stroke="#4b52b3"></path><path d="M828.3 57L768.7 0L737.7 111Z" fill="#293176" stroke="#293176"></path><path d="M449.7 471L535.3 540L493.3 421Z" fill="#05052e" stroke="#05052e"></path><path d="M601 451L760.7 444L631 337Z" fill="#141d51" stroke="#141d51"></path><path d="M387.7 540L535.3 540L449.7 471Z" fill="#05052e" stroke="#05052e"></path><path d="M817.3 193L828.3 57L737.7 111Z" fill="#1e2763" stroke="#1e2763"></path><path d="M960 146L828.3 57L817.3 193Z" fill="#1e2763" stroke="#1e2763"></path><path d="M341 540L387.7 540L342 462Z" fill="#4b52b3" stroke="#4b52b3"></path><path d="M342 462L387.7 540L449.7 471Z" fill="#575ec8" stroke="#575ec8"></path><path d="M236.3 0L135.7 95L246.3 129Z" fill="#575ec8" stroke="#575ec8"></path><path d="M749.7 339L835.3 376L784.7 303Z" fill="#3f479e" stroke="#3f479e"></path><path d="M784.7 303L835.3 376L818.3 261Z" fill="#293176" stroke="#293176"></path><path d="M617 540L760.7 444L601 451Z" fill="#636ade" stroke="#636ade"></path><path d="M535.3 540L617 540L601 451Z" fill="#4b52b3" stroke="#4b52b3"></path><path d="M828.3 57L819.3 0L768.7 0Z" fill="#1e2763" stroke="#1e2763"></path><path d="M224.3 540L341 540L342 462Z" fill="#1e2763" stroke="#1e2763"></path><path d="M760.7 444L835.3 376L749.7 339Z" fill="#575ec8" stroke="#575ec8"></path><path d="M960 257L960 146L817.3 193Z" fill="#575ec8" stroke="#575ec8"></path><path d="M135.7 95L89.7 176L196.3 202Z" fill="#09143f" stroke="#09143f"></path><path d="M175.3 297L111.7 356L217.3 369Z" fill="#7076f4" stroke="#7076f4"></path><path d="M89.7 176L103.7 306L196.3 202Z" fill="#343c8a" stroke="#343c8a"></path><path d="M217.3 369L187.3 475L342 462Z" fill="#7076f4" stroke="#7076f4"></path><path d="M0 102L0 202L89.7 176Z" fill="#4b52b3" stroke="#4b52b3"></path><path d="M236.3 0L123.7 0L135.7 95Z" fill="#636ade" stroke="#636ade"></path><path d="M103.7 306L111.7 356L175.3 297Z" fill="#293176" stroke="#293176"></path><path d="M111.7 356L187.3 475L217.3 369Z" fill="#09143f" stroke="#09143f"></path><path d="M68.7 540L224.3 540L187.3 475Z" fill="#1e2763" stroke="#1e2763"></path><path d="M187.3 475L224.3 540L342 462Z" fill="#09143f" stroke="#09143f"></path><path d="M782.7 540L862.3 439L760.7 444Z" fill="#1e2763" stroke="#1e2763"></path><path d="M760.7 444L862.3 439L835.3 376Z" fill="#343c8a" stroke="#343c8a"></path><path d="M960 257L817.3 193L818.3 261Z" fill="#09143f" stroke="#09143f"></path><path d="M617 540L782.7 540L760.7 444Z" fill="#636ade" stroke="#636ade"></path><path d="M960 257L818.3 261L960 355Z" fill="#636ade" stroke="#636ade"></path><path d="M828.3 57L960 0L819.3 0Z" fill="#343c8a" stroke="#343c8a"></path><path d="M960 355L818.3 261L835.3 376Z" fill="#05052e" stroke="#05052e"></path><path d="M960 146L960 101L828.3 57Z" fill="#293176" stroke="#293176"></path><path d="M0 431L100.7 474L111.7 356Z" fill="#4b52b3" stroke="#4b52b3"></path><path d="M111.7 356L100.7 474L187.3 475Z" fill="#4b52b3" stroke="#4b52b3"></path><path d="M0 346L111.7 356L103.7 306Z" fill="#293176" stroke="#293176"></path><path d="M89.7 176L0 286L103.7 306Z" fill="#7076f4" stroke="#7076f4"></path><path d="M0 102L89.7 176L135.7 95Z" fill="#141d51" stroke="#141d51"></path><path d="M960 428L960 355L862.3 439Z" fill="#05052e" stroke="#05052e"></path><path d="M862.3 439L960 355L835.3 376Z" fill="#636ade" stroke="#636ade"></path><path d="M123.7 0L0 102L135.7 95Z" fill="#4b52b3" stroke="#4b52b3"></path><path d="M0 202L0 286L89.7 176Z" fill="#7076f4" stroke="#7076f4"></path><path d="M960 101L960 0L828.3 57Z" fill="#293176" stroke="#293176"></path><path d="M0 286L0 346L103.7 306Z" fill="#05052e" stroke="#05052e"></path><path d="M123.7 0L0 0L0 102Z" fill="#3f479e" stroke="#3f479e"></path><path d="M886.3 540L960 428L862.3 439Z" fill="#293176" stroke="#293176"></path><path d="M782.7 540L886.3 540L862.3 439Z" fill="#343c8a" stroke="#343c8a"></path><path d="M0 346L0 431L111.7 356Z" fill="#05052e" stroke="#05052e"></path><path d="M100.7 474L68.7 540L187.3 475Z" fill="#7076f4" stroke="#7076f4"></path><path d="M0 431L68.7 540L100.7 474Z" fill="#3f479e" stroke="#3f479e"></path><path d="M886.3 540L960 540L960 428Z" fill="#343c8a" stroke="#343c8a"></path><path d="M0 431L0 540L68.7 540Z" fill="#4b52b3" stroke="#4b52b3"></path></g></svg>